<mxfile host="app.diagrams.net" modified="2023-10-29T19:51:47.072Z" agent="Mozilla/5.0 (Windows NT 10.0; Win64; x64) AppleWebKit/537.36 (KHTML, like Gecko) Chrome/116.0.0.0 Safari/537.36 OPR/102.0.0.0" etag="b-d-qjxQdZgyAmU7I7gQ" version="22.0.8" type="device">
  <diagram name="Page-1" id="ALNeSMexN4Bu5epdXdM7">
    <mxGraphModel dx="1249" dy="573" grid="1" gridSize="10" guides="1" tooltips="1" connect="1" arrows="1" fold="1" page="1" pageScale="1" pageWidth="827" pageHeight="1169" math="0" shadow="0">
      <root>
        <mxCell id="0" />
        <mxCell id="1" parent="0" />
        <mxCell id="BLKRuem-lJn8ejx4ABMN-2" value="" style="rounded=0;whiteSpace=wrap;html=1;rotation=90;" parent="1" vertex="1">
          <mxGeometry x="-255.62" y="380.63" width="966.25" height="295" as="geometry" />
        </mxCell>
        <mxCell id="BLKRuem-lJn8ejx4ABMN-5" value="" style="rounded=0;whiteSpace=wrap;html=1;rotation=90;" parent="1" vertex="1">
          <mxGeometry x="122.51" y="423.13" width="960" height="270" as="geometry" />
        </mxCell>
        <mxCell id="BLKRuem-lJn8ejx4ABMN-8" value="" style="swimlane;startSize=0;" parent="1" vertex="1">
          <mxGeometry width="830" height="1170" as="geometry" />
        </mxCell>
        <mxCell id="BLKRuem-lJn8ejx4ABMN-13" value="" style="verticalLabelPosition=bottom;verticalAlign=top;html=1;shape=mxgraph.basic.banner" parent="BLKRuem-lJn8ejx4ABMN-8" vertex="1">
          <mxGeometry x="67.50999999999999" y="60" width="320" height="50" as="geometry" />
        </mxCell>
        <mxCell id="BLKRuem-lJn8ejx4ABMN-9" value="APP.R" style="text;strokeColor=none;fillColor=none;html=1;fontSize=24;fontStyle=1;verticalAlign=middle;align=center;" parent="BLKRuem-lJn8ejx4ABMN-8" vertex="1">
          <mxGeometry x="365" width="100" height="40" as="geometry" />
        </mxCell>
        <mxCell id="BLKRuem-lJn8ejx4ABMN-7" value="ui" style="text;strokeColor=none;fillColor=none;html=1;fontSize=24;fontStyle=1;verticalAlign=middle;align=center;" parent="BLKRuem-lJn8ejx4ABMN-8" vertex="1">
          <mxGeometry x="177.51" y="60" width="100" height="40" as="geometry" />
        </mxCell>
        <UserObject label="Link" link="lien de l&#39;appli R Shiny publié" id="BLKRuem-lJn8ejx4ABMN-10">
          <mxCell style="text;html=1;strokeColor=none;fillColor=none;whiteSpace=wrap;align=center;verticalAlign=middle;fontColor=#0000EE;fontStyle=4;" parent="BLKRuem-lJn8ejx4ABMN-8" vertex="1">
            <mxGeometry x="405" y="1070" width="60" height="40" as="geometry" />
          </mxCell>
        </UserObject>
        <mxCell id="BLKRuem-lJn8ejx4ABMN-14" value="" style="verticalLabelPosition=bottom;verticalAlign=top;html=1;shape=mxgraph.basic.banner" parent="BLKRuem-lJn8ejx4ABMN-8" vertex="1">
          <mxGeometry x="450" y="60" width="320" height="50" as="geometry" />
        </mxCell>
        <mxCell id="BLKRuem-lJn8ejx4ABMN-6" value="server" style="text;strokeColor=none;fillColor=none;html=1;fontSize=24;fontStyle=1;verticalAlign=middle;align=center;" parent="BLKRuem-lJn8ejx4ABMN-8" vertex="1">
          <mxGeometry x="560" y="60" width="100" height="40" as="geometry" />
        </mxCell>
        <mxCell id="BLKRuem-lJn8ejx4ABMN-21" value="Création de plusieurs onglets" style="swimlane;whiteSpace=wrap;html=1;" parent="BLKRuem-lJn8ejx4ABMN-8" vertex="1" collapsed="1">
          <mxGeometry x="122.51" y="160" width="210" height="30" as="geometry">
            <mxRectangle x="127.51" y="160" width="200" height="100" as="alternateBounds" />
          </mxGeometry>
        </mxCell>
        <mxCell id="BLKRuem-lJn8ejx4ABMN-23" value="&lt;p style=&quot;line-height: 150%;&quot;&gt;&lt;/p&gt;&lt;ol style=&quot;line-height: 120%;&quot;&gt;&lt;li&gt;&quot;Carte et indicateurs&quot;&lt;/li&gt;&lt;li&gt;&quot;Info station&quot;&lt;br&gt;&lt;/li&gt;&lt;li&gt;&quot;Utilisateurs&quot;&lt;/li&gt;&lt;/ol&gt;&lt;p&gt;&lt;/p&gt;" style="text;strokeColor=none;fillColor=none;html=1;whiteSpace=wrap;verticalAlign=middle;overflow=hidden;align=center;" parent="BLKRuem-lJn8ejx4ABMN-21" vertex="1">
          <mxGeometry x="25" y="20" width="150" height="80" as="geometry" />
        </mxCell>
        <mxCell id="BLKRuem-lJn8ejx4ABMN-38" value="Initialisation de l&#39;API/ Récupération des données" style="shape=ext;double=1;rounded=0;whiteSpace=wrap;html=1;" parent="BLKRuem-lJn8ejx4ABMN-8" vertex="1">
          <mxGeometry x="535" y="180" width="150" height="50" as="geometry" />
        </mxCell>
        <mxCell id="BLKRuem-lJn8ejx4ABMN-15" value="Interface utilisateur" style="whiteSpace=wrap;html=1;shape=mxgraph.basic.cloud_rect" parent="1" vertex="1">
          <mxGeometry x="132.51" y="120" width="190" height="30" as="geometry" />
        </mxCell>
        <mxCell id="BLKRuem-lJn8ejx4ABMN-29" value="Cartes et indicateurs" style="verticalLabelPosition=bottom;verticalAlign=top;html=1;shape=mxgraph.basic.rect;fillColor2=none;strokeWidth=1;size=20;indent=5;" parent="1" vertex="1">
          <mxGeometry x="120" y="210" width="220" height="100" as="geometry" />
        </mxCell>
        <mxCell id="BLKRuem-lJn8ejx4ABMN-30" value="&lt;ul&gt;&lt;li&gt;Bouton rafraichir ( avec animation de chargement)&lt;/li&gt;&lt;li&gt;Création de boites pour les KPI&lt;/li&gt;&lt;li&gt;Filtres&lt;/li&gt;&lt;li&gt;Création de la carte&amp;nbsp;&lt;/li&gt;&lt;/ul&gt;" style="text;strokeColor=none;fillColor=none;html=1;whiteSpace=wrap;verticalAlign=middle;overflow=hidden;" parent="1" vertex="1">
          <mxGeometry x="120" y="205" width="210" height="110" as="geometry" />
        </mxCell>
        <mxCell id="BLKRuem-lJn8ejx4ABMN-31" value="Info Stations" style="verticalLabelPosition=bottom;verticalAlign=top;html=1;shape=mxgraph.basic.rect;fillColor2=none;strokeWidth=1;size=20;indent=5;" parent="1" vertex="1">
          <mxGeometry x="120" y="370" width="220" height="110" as="geometry" />
        </mxCell>
        <mxCell id="BLKRuem-lJn8ejx4ABMN-32" value="&lt;ul&gt;&lt;li style=&quot;border-color: var(--border-color);&quot;&gt;Création de boites pour les KPI&lt;/li&gt;&lt;li style=&quot;border-color: var(--border-color);&quot;&gt;Création d&#39;un Filtre&amp;nbsp;&lt;/li&gt;&lt;li style=&quot;border-color: var(--border-color);&quot;&gt;Création d&#39;une boite pour un graphique&lt;/li&gt;&lt;li style=&quot;border-color: var(--border-color);&quot;&gt;Création d&#39;un bouton d&#39;export&lt;/li&gt;&lt;/ul&gt;" style="text;strokeColor=none;fillColor=none;html=1;whiteSpace=wrap;verticalAlign=middle;overflow=hidden;" parent="1" vertex="1">
          <mxGeometry x="126.24" y="360" width="197.51" height="120" as="geometry" />
        </mxCell>
        <mxCell id="BLKRuem-lJn8ejx4ABMN-33" value="Utilisateurs" style="verticalLabelPosition=bottom;verticalAlign=top;html=1;shape=mxgraph.basic.rect;fillColor2=none;strokeWidth=1;size=20;indent=5;" parent="1" vertex="1">
          <mxGeometry x="120" y="530" width="220" height="110" as="geometry" />
        </mxCell>
        <mxCell id="BLKRuem-lJn8ejx4ABMN-35" value="Cartes et indicateurs" style="verticalLabelPosition=bottom;verticalAlign=top;html=1;shape=mxgraph.basic.rect;fillColor2=none;strokeWidth=1;size=20;indent=5;" parent="1" vertex="1">
          <mxGeometry x="492.51" y="250" width="220" height="100" as="geometry" />
        </mxCell>
        <mxCell id="BLKRuem-lJn8ejx4ABMN-36" value="Info Stations" style="verticalLabelPosition=bottom;verticalAlign=top;html=1;shape=mxgraph.basic.rect;fillColor2=none;strokeWidth=1;size=20;indent=5;" parent="1" vertex="1">
          <mxGeometry x="490" y="393.13" width="230" height="126.87" as="geometry" />
        </mxCell>
        <mxCell id="BLKRuem-lJn8ejx4ABMN-37" value="Utilisateurs" style="verticalLabelPosition=bottom;verticalAlign=top;html=1;shape=mxgraph.basic.rect;fillColor2=none;strokeWidth=1;size=20;indent=5;" parent="1" vertex="1">
          <mxGeometry x="500" y="590" width="220" height="120" as="geometry" />
        </mxCell>
        <mxCell id="cKpUTV3ygS4G4OkYMYeW-1" value="Installation des packages si nécessaires" style="shape=ext;double=1;rounded=0;whiteSpace=wrap;html=1;" parent="1" vertex="1">
          <mxGeometry x="535" y="120" width="150" height="50" as="geometry" />
        </mxCell>
        <mxCell id="cKpUTV3ygS4G4OkYMYeW-2" value="&lt;ul&gt;&lt;li&gt;&lt;font style=&quot;font-size: 11px;&quot;&gt;Création d&#39;un bouton rafraichir (avec animation)&lt;/font&gt;&lt;/li&gt;&lt;li&gt;&lt;font style=&quot;font-size: 11px;&quot;&gt;Création des KPI&lt;/font&gt;&lt;/li&gt;&lt;li&gt;&lt;font style=&quot;font-size: 11px;&quot;&gt;Création de la carte avec les points de chaque stations&lt;/font&gt;&lt;/li&gt;&lt;/ul&gt;" style="text;strokeColor=none;fillColor=none;html=1;whiteSpace=wrap;verticalAlign=middle;overflow=hidden;fontSize=16;" parent="1" vertex="1">
          <mxGeometry x="508.75" y="230" width="187.51" height="120" as="geometry" />
        </mxCell>
        <mxCell id="cKpUTV3ygS4G4OkYMYeW-4" value="&lt;ul&gt;&lt;li&gt;&lt;span style=&quot;font-size: 11px;&quot;&gt;Bouton de recherche pour rechercher une station avec son numéro&lt;/span&gt;&lt;/li&gt;&lt;li&gt;&lt;span style=&quot;font-size: 11px;&quot;&gt;Création des KPI en fonction de la recherche&lt;/span&gt;&lt;/li&gt;&lt;li&gt;&lt;span style=&quot;font-size: 11px;&quot;&gt;Graphique de la répartition du nombre de vélos disponibles par type&lt;/span&gt;&lt;/li&gt;&lt;/ul&gt;" style="text;strokeColor=none;fillColor=none;html=1;whiteSpace=wrap;verticalAlign=middle;overflow=hidden;fontSize=16;" parent="1" vertex="1">
          <mxGeometry x="480.63" y="380.63" width="230" height="131.26" as="geometry" />
        </mxCell>
        <mxCell id="KdQgPiUsTE1zo2qpzKcE-3" value="&lt;ul style=&quot;border-color: var(--border-color); color: rgb(0, 0, 0); font-family: Helvetica; font-size: 16px; font-style: normal; font-variant-ligatures: normal; font-variant-caps: normal; font-weight: 400; letter-spacing: normal; orphans: 2; text-align: left; text-indent: 0px; text-transform: none; widows: 2; word-spacing: 0px; -webkit-text-stroke-width: 0px; background-color: rgb(251, 251, 251); text-decoration-thickness: initial; text-decoration-style: initial; text-decoration-color: initial;&quot;&gt;&lt;li style=&quot;border-color: var(--border-color);&quot;&gt;&lt;span style=&quot;border-color: var(--border-color); font-size: 11px;&quot;&gt;Input pour l&#39;username&lt;/span&gt;&lt;/li&gt;&lt;li style=&quot;border-color: var(--border-color);&quot;&gt;&lt;span style=&quot;border-color: var(--border-color); font-size: 11px;&quot;&gt;Input pour le mot de passe&lt;/span&gt;&lt;/li&gt;&lt;li style=&quot;border-color: var(--border-color);&quot;&gt;&lt;span style=&quot;border-color: var(--border-color); font-size: 11px;&quot;&gt;ActionButton pour lancer la tentative de connection&lt;/span&gt;&lt;/li&gt;&lt;/ul&gt;" style="text;whiteSpace=wrap;html=1;" vertex="1" parent="1">
          <mxGeometry x="132.51" y="530" width="180" height="70" as="geometry" />
        </mxCell>
        <mxCell id="KdQgPiUsTE1zo2qpzKcE-4" value="&lt;ul&gt;&lt;li&gt;&lt;span style=&quot;font-size: 11px;&quot;&gt;Récupération&amp;nbsp;des username et password entrer par l&#39;utilisateur&lt;/span&gt;&lt;/li&gt;&lt;li&gt;&lt;span style=&quot;font-size: 11px;&quot;&gt;Vérification que les champs ne soit pas nulles&lt;/span&gt;&lt;/li&gt;&lt;li&gt;&lt;span style=&quot;font-size: 11px;&quot;&gt;Message de Bienvenue ( un pour utilisateur, un pour l&#39;admin)&lt;/span&gt;&lt;/li&gt;&lt;/ul&gt;" style="text;strokeColor=none;fillColor=none;html=1;whiteSpace=wrap;verticalAlign=middle;overflow=hidden;fontSize=16;" vertex="1" parent="1">
          <mxGeometry x="494.06" y="570" width="231.87" height="140" as="geometry" />
        </mxCell>
      </root>
    </mxGraphModel>
  </diagram>
</mxfile>
